<?xml version="1.0" encoding="iso-8859-1"?>
<!-- Generator: Adobe Illustrator 18.1.1, SVG Export Plug-In . SVG Version: 6.00 Build 0)  -->
<svg version="1.1" id="Capa_1" xmlns="http://www.w3.org/2000/svg" xmlns:xlink="http://www.w3.org/1999/xlink" x="0px" y="0px"
	 viewBox="0 0 71.577 71.577" style="enable-background:new 0 0 71.577 71.577;" xml:space="preserve">
<g>
	<g>
		<polygon style="fill:#010002;" points="25.052,57.523 17.894,64.681 53.683,64.681 46.525,57.523 		"/>
		<path style="fill:#010002;" d="M0,6.896v46.525h71.577V6.896H0z M33.237,40.863c-3.518-0.512-6.943-1.009-10.382-1.51
			c0-2.845,0-5.604,0-8.421c3.471,0,6.9,0,10.382,0C33.237,34.221,33.237,37.503,33.237,40.863z M33.248,29.425
			c-3.464,0-6.871,0-10.361,0c0-2.788,0-5.572,0-8.478c3.411-0.494,6.857-0.995,10.361-1.507
			C33.248,22.794,33.248,26.058,33.248,29.425z M48.644,43.089c-4.667-0.673-9.273-1.338-13.922-2.011c0-3.389,0-6.735,0-10.139
			c4.62,0,9.216,0,13.922,0C48.644,34.976,48.644,38.963,48.644,43.089z M48.719,29.418c-4.724,0-9.319,0-13.979,0
			c0-3.382,0-6.746,0-10.185c2.162-0.315,4.316-0.619,6.474-0.945c2.273-0.344,4.545-0.705,6.811-1.056c0.233,0,0.469,0,0.701,0
			C48.719,21.273,48.719,25.32,48.719,29.418z"/>
	</g>
</g>
<g>
</g>
<g>
</g>
<g>
</g>
<g>
</g>
<g>
</g>
<g>
</g>
<g>
</g>
<g>
</g>
<g>
</g>
<g>
</g>
<g>
</g>
<g>
</g>
<g>
</g>
<g>
</g>
<g>
</g>
</svg>
