<svg height="512pt" viewBox="0 0 512 512" width="512pt" xmlns="http://www.w3.org/2000/svg"><path d="m432.734375 0h-353.46875c-43.707031 0-79.265625 35.558594-79.265625 79.265625v34.269531h512v-34.269531c0-43.707031-35.558594-79.265625-79.265625-79.265625zm-353.46875 71.765625c-8.25 0-15-6.71875-15-15 0-8.277344 6.75-15 15-15s15 6.722656 15 15c0 8.28125-6.75 15-15 15zm64.265625 0c-8.25 0-15-6.71875-15-15 0-8.277344 6.75-15 15-15s15 6.722656 15 15c0 8.28125-6.75 15-15 15zm64.269531 0c-8.25 0-15-6.71875-15-15 0-8.277344 6.75-15 15-15s15 6.722656 15 15c0 8.28125-6.75 15-15 15zm0 0"/><path d="m0 432.734375c0 43.707031 35.558594 79.265625 79.265625 79.265625h353.46875c43.707031 0 79.265625-35.558594 79.265625-79.265625v-289.203125h-512zm341.792969-198.261719c-5.859375-5.855468-5.859375-15.355468 0-21.210937 5.859375-5.859375 15.355469-5.859375 21.214843 0l64.265626 64.265625c5.859374 5.859375 5.859374 15.355468 0 21.214844l-64.265626 64.265624c-2.929687 2.929688-6.769531 4.394532-10.609374 4.394532-3.835938 0-7.675782-1.464844-10.605469-4.394532-5.855469-5.855468-5.855469-15.355468 0-21.210937l53.660156-53.660156zm-131.34375 111.21875 64.269531-128.535156c3.703125-7.40625 12.714844-10.410156 20.121094-6.707031 7.410156 3.703125 10.414062 12.714843 6.710937 20.125l-64.269531 128.535156c-2.625 5.253906-7.925781 8.292969-13.425781 8.292969-2.253907 0-4.542969-.507813-6.695313-1.585938-7.410156-3.703125-10.414062-12.714844-6.710937-20.125zm-125.722657-68.164062 64.265626-64.269532c5.859374-5.855468 15.355468-5.855468 21.214843 0 5.855469 5.859376 5.855469 15.355469 0 21.214844l-53.660156 53.660156 53.65625 53.660157c5.859375 5.855469 5.859375 15.355469 0 21.214843-2.925781 2.925782-6.765625 4.390626-10.605469 4.390626-3.835937 0-7.675781-1.464844-10.605468-4.390626l-64.265626-64.269531c-5.859374-5.855469-5.859374-15.351562 0-21.210937zm0 0"/></svg>