<svg height="512" viewBox="0 0 56 56" width="512" xmlns="http://www.w3.org/2000/svg"><g id="Page-1" fill="none" fill-rule="evenodd"><g id="071---Birthday-Date" fill="rgb(0,0,0)" fill-rule="nonzero"><path id="Shape" d="m41 3.87v1.13c0 1.65685425 1.3431458 3 3 3s3-1.34314575 3-3v-1.13c.634739.65364205.9929279 1.5269064 1 2.438-.1681855 2.08439211-1.9088336 3.69024777-4 3.69024777s-3.8318145-1.60585566-4-3.69024777c.0070721-.9110936.365261-1.78435795 1-2.438zm2-2.87c0-.55228475.4477153-1 1-1s1 .44771525 1 1v4c0 .55228475-.4477153 1-1 1s-1-.44771525-1-1zm-34 2.87v1.13c.00000003 1.65685422 1.3431458 2.99999994 3 2.99999994s3-1.34314572 3-2.99999994v-1.13c.634739.65364205.9929279 1.5269064 1 2.438-.0904077 2.12160902-1.8779548 3.771515-4 3.692-2.12204518.079515-3.9095923-1.57039098-4-3.692.00707214-.9110936.36526097-1.78435795 1-2.438zm2-2.87c0-.55228475.4477153-1 1-1s1 .44771525 1 1v4c0 .55228475-.4477153 1-1 1s-1-.44771525-1-1zm-9 2h5.134c-.72872851.94944373-1.12696914 2.11115448-1.134 3.308.09102178 3.2259942 2.7736878 5.77095 6 5.692 3.2263122.07895 5.9089782-2.4660058 6-5.692-.0070309-1.19684552-.4052715-2.35855627-1.134-3.308h22.268c-.7287285.94944373-1.1269691 2.11115448-1.134 3.308.1649621 3.19341238 2.8023297 5.6980581 6 5.6980581s5.8350379-2.50464572 6-5.6980581c-.0070309-1.19684552-.4052715-2.35855627-1.134-3.308h5.134c1.1045695 0 2 .8954305 2 2v9h-56v-9c0-1.1045695.8954305-2 2-2zm-2 51v-38h56v31h-5c-2.209139 0-4 1.790861-4 4v1h-4.184c.1184378-.320257.1806856-.6585603.184-1v-17c1.6568542 0 3-1.3431458 3-3v-4c0-1.6568542-1.3431458-3-3-3h-2v-.38c-.0012848-1.570298-.8002673-3.0323847-2.121149-3.8815663-1.3208816-.8491815-2.982713-.9691273-4.411851-.3184337l-3.491 1.58c-.933937-1.2586612-2.4086882-2.0007754-3.976-2.0007754s-3.042063.7421142-3.976 2.0007754l-3.49-1.581c-1.4293956-.6512211-3.0917704-.5314023-4.4130003.3180753-1.32123.8494777-2.1202093 2.3121732-2.1209997 3.8829247v.38h-2c-1.65685425 0-3 1.3431458-3 3v4c0 1.6568542 1.34314575 3 3 3v17c.0033144.3414397.0655622.679743.184 1h-6.184c-.55228475 0-1 .4477153-1 1s.44771525 1 1 1h42v2h-45c-1.1045695 0-2-.8954305-2-2zm49-3c0-1.1045695.8954305-2 2-2h3.586l-5.586 5.586zm-36 0v-17h8v18h-7c-.5522847 0-1-.4477153-1-1zm18.84-28.194 3.453-1.566c.8103908-.3695243 1.7530057-.3020441 2.502495.1791495.7494892.4811935 1.2031902 1.310188 1.204505 2.2008505v.38h-7c-.0044936-.4030319-.0582252-.8040041-.16-1.194zm10.16 9.194h-8v-6h9c.5522847 0 1 .4477153 1 1v4c0 .5522847-.4477153 1-1 1zm-20 0v-6h10v6zm2-8c0-1.6568542 1.3431458-3 3-3s3 1.3431458 3 3zm-2 0h-7v-.38c.0014997-.890761.4554724-1.7197392 1.2051957-2.200751.7497234-.4810118 1.6924789-.5481546 2.5028043-.178249l3.452 1.565c-.1017748.3899959-.1555064.7909681-.16 1.194zm-2 2v6h-9c-.5522847 0-1-.4477153-1-1v-4c0-.5522847.4477153-1 1-1zm3 8h8v18h-8zm10 0h8v17c0 .5522847-.4477153 1-1 1h-7z"/></g></g></svg>