<svg height="464pt" viewBox="-8 0 464 464" width="464pt" xmlns="http://www.w3.org/2000/svg"><path d="m140.753906 137.742188-33.554687 7.488281c-12.332031 2.339843-22.414063 11.214843-26.296875 23.152343-3.886719 11.9375-.960938 25.042969 7.632812 34.195313s21.492188 12.894531 33.648438 9.765625l24.800781-5.542969 8.726563-1.953125-7.488282-33.550781zm0 0"/><path d="m125.671875 227.960938h-.039063l-.425781.09375 11.289063 50.570312 17.480468-3.90625-11.289062-50.558594zm0 0"/><path d="m274.984375 38.777344c-.648437-3.171875-2.957031-5.746094-6.039063-6.734375-3.082031-.988281-6.457031-.234375-8.828124 1.96875-2.371094 2.203125-3.367188 5.515625-2.605469 8.660156l44.257812 198.191406c.523438 2.347657 1.96875 4.386719 4.011719 5.65625s4.511719 1.664063 6.851562 1.097657c4.714844-1.1875 7.636719-5.898438 6.597657-10.648438zm0 0"/><path d="m155.855469 131.953125 16.015625 71.710937 108.183594 13.414063-31.992188-143.285156zm0 0"/><path d="m400 16c0-8.835938-7.164062-16-16-16h-320c-8.835938 0-16 7.164062-16 16v304h352zm-27.121094 113.335938-41.367187 9.230468-3.511719-15.613281 41.359375-9.234375zm-42.535156-102.992188 11.3125 11.3125-24 24-11.3125-11.3125zm-202.34375-10.34375h16v16h-16zm-32 0h16v16h-16zm-32 0h16v16h-16zm252.449219 247.152344c-1.964844.480468-3.980469.726562-6 .726562-11.667969-.03125-21.753907-8.140625-24.296875-19.527344l-2.398438-10.695312-118.066406-14.632812-7.390625 1.648437 13.039063 58.398437c.964843 4.316407-1.757813 8.59375-6.070313 9.554688l-33.089844 7.375c-4.3125.964844-8.589843-1.75-9.550781-6.0625l-13.648438-61.136719c-24.484374-2.726562-43.398437-22.769531-44.707031-47.367187-1.304687-24.601563 15.382813-46.53125 39.441407-51.832032l40-8.929687 100.632812-63.480469-2.464844-11.039062c-3.003906-13.449219 5.464844-26.789063 18.914063-29.792969s26.785156 5.464844 29.792969 18.914063l44.246093 198.191406c2.894531 13.234375-5.246093 26.378906-18.382812 29.6875zm56-40-32-16 7.152343-14.320313 32 16zm0 0"/><path d="m432 64h-16v256h32v-240c0-8.835938-7.164062-16-16-16zm0 0"/><path d="m0 352c0 8.835938 7.164062 16 16 16h416c8.835938 0 16-7.164062 16-16v-16h-448zm0 0"/><path d="m32 64h-16c-8.835938 0-16 7.164062-16 16v240h32zm0 0"/><path d="m258.046875 384h-68.09375l-19.199219 64h-34.753906v16h176v-16h-34.753906zm0 0"/></svg>