<?xml version="1.0" encoding="iso-8859-1"?>
<!-- Generator: Adobe Illustrator 19.0.0, SVG Export Plug-In . SVG Version: 6.00 Build 0)  -->
<svg version="1.1" id="Capa_1" xmlns="http://www.w3.org/2000/svg" xmlns:xlink="http://www.w3.org/1999/xlink" x="0px" y="0px"
	 viewBox="0 0 511.901 511.901" style="enable-background:new 0 0 511.901 511.901;" xml:space="preserve">
<g>
	<g>
		<g>
			<path d="M343.889,39.715c-4.307,0.864-8.51,2.007-12.738,3.083c-2.638,0.671-5.332,1.2-7.937,1.951
				c-5.648,1.631-11.173,3.546-16.656,5.547c-1.678,0.613-3.366,1.195-5.029,1.842c-5.924,2.304-11.768,4.768-17.47,7.492
				c-2.319,1.108-4.524,2.41-6.805,3.585c-3.893,2.007-7.819,3.959-11.594,6.158c-2.512,1.464-4.895,3.12-7.352,4.666
				c-3.397,2.138-6.838,4.214-10.126,6.507c-2.492,1.738-4.846,3.657-7.273,5.482c-3.091,2.326-6.228,4.594-9.209,7.057
				c-2.397,1.981-4.652,4.127-6.975,6.195c-2.831,2.52-5.705,4.99-8.422,7.636c-2.266,2.207-4.387,4.564-6.571,6.857
				c-2.583,2.71-5.205,5.381-7.669,8.207c-2.101,2.41-4.053,4.954-6.065,7.446c-2.343,2.904-4.721,5.776-6.939,8.787
				c-1.914,2.598-3.679,5.315-5.497,7.991c-2.095,3.084-4.217,6.144-6.181,9.328c-1.718,2.785-3.287,5.676-4.901,8.536
				c-1.831,3.244-3.683,6.473-5.377,9.809c-1.505,2.964-2.862,6.021-4.256,9.055c-1.557,3.391-3.128,6.774-4.543,10.249
				c-1.276,3.135-2.407,6.349-3.564,9.55c-1.273,3.522-2.549,7.042-3.675,10.641c-1.031,3.296-1.92,6.662-2.824,10.021
				c-0.652,2.438-1.272,4.891-1.859,7.358c0.315,0.13,0.628,0.27,0.944,0.399c5.598,2.267,11.269,4.291,17.013,6.072
				c1.013,0.313,2.028,0.619,3.046,0.917c5.774,1.695,11.613,3.159,17.522,4.354c0.941,0.191,1.89,0.352,2.834,0.529
				c6.077,1.143,12.209,2.07,18.412,2.685c0.657,0.065,1.321,0.096,1.979,0.155c6.55,0.589,13.152,0.946,19.824,0.946
				c4.52,0,9.032-0.177,13.518-0.463c1.424-0.091,2.828-0.247,4.246-0.366c2.181-0.184,4.342-0.423,6.502-0.673
				c0.758-1.924,1.658-3.773,2.465-5.671c1.008-2.373,1.998-4.753,3.08-7.086c1.305-2.813,2.718-5.56,4.128-8.313
				c1.161-2.264,2.292-4.541,3.524-6.762c1.509-2.721,3.133-5.366,4.746-8.021c1.305-2.147,2.571-4.315,3.942-6.417
				c1.724-2.641,3.57-5.192,5.398-7.759c1.423-1.998,2.797-4.029,4.282-5.981c1.963-2.58,4.056-5.057,6.125-7.555
				c1.509-1.822,2.961-3.687,4.526-5.464c2.254-2.558,4.646-4.996,7.014-7.458c1.529-1.589,2.991-3.235,4.566-4.783
				c2.705-2.657,5.555-5.176,8.394-7.706c1.378-1.228,2.683-2.525,4.091-3.723c4.306-3.673,8.756-7.194,13.349-10.564l0.004-0.003
				l0.009-0.01c18.82-13.76,39.595-24.623,61.633-32.228c6.09-2.104,12.247-4.036,18.526-5.633
				c3.898-0.991,7.838-1.868,11.805-2.662c0.218-0.059,0.411-0.175,0.635-0.218c3.844-0.741,7.813-1.353,11.688-1.946l1.741-0.268
				c5.898-0.773,11.705-1.284,17.525-1.627c0.746-0.045,1.459-0.169,2.208-0.207c-6.17-7.816-12.793-15.264-19.835-22.304
				c-15.481-15.576-32.947-29.044-51.948-40.056c-3.691,0.13-7.327,0.468-10.979,0.751c-3.237,0.25-6.506,0.377-9.71,0.745
				c-4.108,0.473-8.132,1.215-12.182,1.878C349.949,38.753,346.88,39.115,343.889,39.715z"/>
			<path d="M44.229,144.007c2.271,3.701,4.766,7.238,7.248,10.786c0.349-1.182,0.785-2.328,1.149-3.504
				c1.007-3.254,2.054-6.489,3.178-9.693c0.689-1.961,1.407-3.905,2.139-5.847c1.164-3.077,2.381-6.129,3.65-9.157
				c0.8-1.909,1.598-3.817,2.44-5.705c1.379-3.092,2.841-6.138,4.333-9.171c0.849-1.727,1.665-3.469,2.55-5.176
				c1.845-3.561,3.799-7.056,5.797-10.528c0.627-1.09,1.202-2.209,1.843-3.289c2.667-4.48,5.456-8.879,8.368-13.198
				c0.878-1.302,1.826-2.555,2.727-3.843c2.111-3.017,4.246-6.016,6.478-8.946c1.227-1.61,2.508-3.175,3.77-4.757
				c2.027-2.543,4.079-5.064,6.198-7.535c1.391-1.622,2.811-3.215,4.241-4.805c2.134-2.372,4.31-4.708,6.528-7.007
				c0.845-0.877,1.631-1.806,2.489-2.672C103.598,50.001,88.986,61.73,75.776,74.939c-15.766,15.708-29.397,33.423-40.54,52.688
				c2.47,4.931,4.986,9.844,7.821,14.569C43.427,142.814,43.853,143.394,44.229,144.007z"/>
			<path d="M9.409,259.742c1.634,2.453,3.385,4.805,5.097,7.191c1.576,2.197,3.107,4.435,4.748,6.574
				c1.776,2.316,3.664,4.524,5.513,6.772c1.716,2.085,3.388,4.214,5.166,6.239c1.902,2.166,3.91,4.221,5.88,6.317
				c1.854,1.973,3.664,3.992,5.576,5.901c2.024,2.02,4.148,3.924,6.235,5.871c1.98,1.849,3.918,3.747,5.954,5.53
				c2.146,1.879,4.387,3.634,6.592,5.439c2.089,1.709,4.136,3.472,6.276,5.113c2.271,1.741,4.632,3.353,6.958,5.016
				c2.18,1.559,4.32,3.175,6.547,4.664c2.391,1.598,4.867,3.061,7.309,4.578c2.259,1.404,4.481,2.869,6.783,4.201
				c2.516,1.456,5.11,2.77,7.675,4.14c2.318,1.238,4.599,2.543,6.955,3.711c2.655,1.316,5.383,2.48,8.084,3.704
				c2.346,1.063,4.657,2.198,7.036,3.191c2.787,1.164,5.643,2.168,8.473,3.233c2.367,0.891,4.702,1.859,7.098,2.681
				c2.919,1.001,5.9,1.835,8.859,2.732c2.371,0.718,4.712,1.521,7.106,2.17c3.061,0.831,6.177,1.487,9.274,2.205
				c2.35,0.545,4.674,1.179,7.044,1.658c3.274,0.662,6.596,1.138,9.905,1.672c2.239,0.362,4.454,0.819,6.707,1.122
				c3.757,0.505,7.557,0.809,11.35,1.146c1.843,0.163,3.665,0.428,5.515,0.552c5.663,0.382,11.354,0.574,17.074,0.574
				c6.319,0,12.604-0.261,18.854-0.715c2.083-0.151,4.139-0.444,6.213-0.646c4.153-0.405,8.305-0.823,12.417-1.428
				c2.441-0.359,4.853-0.847,7.279-1.277c3.701-0.656,7.399-1.328,11.059-2.149c2.548-0.572,5.068-1.242,7.594-1.893
				c2.186-0.563,4.355-1.185,6.525-1.807c-0.161-1.416-0.291-2.836-0.48-4.247c-0.252-1.888-0.515-3.775-0.816-5.654
				c-0.48-2.984-1.043-5.95-1.647-8.906c-0.355-1.738-0.694-3.479-1.092-5.205c-0.715-3.105-1.54-6.178-2.392-9.243
				c-0.431-1.552-0.823-3.116-1.29-4.657c-1.023-3.383-2.178-6.723-3.367-10.05c-0.423-1.184-0.79-2.388-1.235-3.565
				c-3.389-8.976-7.377-17.715-11.935-26.158c-0.745-1.381-1.576-2.719-2.352-4.084c-1.592-2.803-3.199-5.599-4.92-8.336
				c-0.993-1.579-2.062-3.117-3.098-4.674c-1.192-1.785-2.41-3.554-3.655-5.309c-2.094,0.238-4.22,0.36-6.332,0.539
				c-1.709,0.146-3.355,0.325-5.095,0.434c-4.806,0.301-9.633,0.489-14.47,0.489c-33.136,0.108-65.907-6.929-96.078-20.631
				l-0.016-0.003c-4.002-1.794-7.95-3.703-11.845-5.726c-23.439-12.193-44.645-28.267-62.717-47.54
				c-2.979-3.182-5.864-6.444-8.655-9.785l-0.016-0.012l-0.047-0.059l-0.012-0.013c-2.746-3.219-5.549-6.638-8.112-10.174
				c-2.597-3.473-5.079-7.057-7.492-10.699c-0.745-1.124-1.448-2.277-2.174-3.416c-1.649-2.586-3.259-5.196-4.81-7.853
				c-0.362-0.619-0.766-1.209-1.122-1.832c-3.439,7.337-6.504,14.844-9.183,22.491c-0.131,0.371-0.285,0.733-0.46,1.085
				c-8.584,24.22-13.365,49.623-14.174,75.307c1.304,2.249,2.692,4.43,4.059,6.63C6.535,255.164,7.915,257.5,9.409,259.742z"/>
			<path d="M252.307,493.97c-2.003,0.222-4.016,0.358-6.025,0.535c-3.58,0.319-7.161,0.617-10.762,0.793
				c-1.527,0.073-3.056,0.088-4.585,0.135c-2.912,0.093-5.818,0.257-8.739,0.257c-1.495,0-2.983-0.074-4.477-0.098l-0.545-0.012
				c-16.427-0.304-32.794-2.087-48.901-5.328c-0.429-0.086-0.859-0.168-1.288-0.256c-10.123-2.085-20.12-4.74-29.943-7.952
				c-0.571-0.187-1.16-0.329-1.731-0.519c36.735,19.851,77.818,30.288,119.574,30.376c0.666-0.943,1.33-1.887,1.981-2.843
				c1.118-1.644,2.225-3.297,3.296-4.979c1.008-1.583,1.986-3.191,2.952-4.806c1.038-1.734,2.062-3.479,3.049-5.248
				c0.391-0.699,0.757-1.412,1.139-2.116c-1.82,0.309-3.667,0.485-5.495,0.755C258.647,493.133,255.491,493.614,252.307,493.97z"/>
			<path d="M114.716,72.714c-1.485,1.85-2.994,3.681-4.427,5.571c-1.269,1.675-2.467,3.402-3.695,5.108
				c-1.381,1.918-2.782,3.821-4.109,5.776c-1.193,1.759-2.315,3.565-3.464,5.354c-1.262,1.963-2.542,3.914-3.749,5.912
				c-1.114,1.843-2.157,3.729-3.224,5.601c-1.147,2.011-2.31,4.012-3.402,6.056c-1.017,1.904-1.965,3.845-2.934,5.776
				c-1.04,2.072-2.094,4.137-3.079,6.24c-0.915,1.954-1.763,3.942-2.629,5.921c-0.934,2.134-1.878,4.263-2.753,6.426
				c-0.815,2.013-1.566,4.055-2.33,6.091c-0.816,2.175-1.64,4.347-2.398,6.548c-0.714,2.073-1.365,4.171-2.026,6.266
				c-0.7,2.218-1.404,4.434-2.044,6.676c-0.603,2.113-1.147,4.249-1.698,6.383c-0.392,1.525-0.771,3.055-1.137,4.59
				c0.438,0.502,0.881,0.998,1.323,1.495c3.99,4.491,8.118,8.863,12.475,13.003c0.305,0.29,0.631,0.556,0.937,0.844
				c4.2,3.944,8.589,7.685,13.091,11.281c0.865,0.69,1.712,1.402,2.587,2.078c4.632,3.571,9.395,6.95,14.288,10.137
				c1.021,0.665,2.055,1.306,3.086,1.953c5.068,3.18,10.231,6.207,15.54,8.946l0.318,0.153c0.565-2.242,1.312-4.395,1.93-6.612
				c0.816-2.928,1.642-5.844,2.547-8.728c1.357-4.318,2.855-8.555,4.409-12.768c0.998-2.706,1.956-5.427,3.034-8.089
				c1.803-4.451,3.788-8.787,5.809-13.108c1.061-2.268,2.035-4.585,3.154-6.816c2.877-5.738,5.968-11.334,9.218-16.818
				c0.413-0.696,0.764-1.435,1.183-2.127c3.701-6.117,7.659-12.042,11.804-17.816c1.378-1.919,2.881-3.728,4.306-5.608
				c2.886-3.805,5.794-7.588,8.867-11.227c1.812-2.145,3.72-4.191,5.595-6.277c2.886-3.211,5.801-6.387,8.833-9.453
				c2.073-2.097,4.204-4.122,6.343-6.15c3.033-2.888,6.135-5.701,9.306-8.439c2.245-1.939,4.511-3.845,6.82-5.71
				c3.288-2.657,6.652-5.209,10.061-7.711c2.332-1.711,4.65-3.432,7.036-5.069c3.668-2.517,7.436-4.88,11.228-7.216
				c2.268-1.397,4.491-2.851,6.801-4.182c4.555-2.626,9.234-5.046,13.948-7.41c1.664-0.835,3.268-1.765,4.95-2.566
				c6.444-3.072,13.018-5.891,19.722-8.457c1.593-0.609,3.245-1.088,4.851-1.669c5.17-1.869,10.373-3.659,15.679-5.222
				c2.496-0.735,5.045-1.325,7.57-1.991c4.522-1.193,9.057-2.341,13.665-3.307c2.821-0.591,5.674-1.073,8.525-1.578
				c2.666-0.472,5.286-1.08,7.977-1.476C302.682-1.974,245.397-5.777,191.283,8.47c-2.57,1.408-5.072,2.908-7.583,4.397
				c-1.32,0.784-2.679,1.516-3.983,2.321c-3.21,1.982-6.339,4.066-9.445,6.178c-0.646,0.439-1.321,0.842-1.963,1.286
				c-3.717,2.58-7.357,5.25-10.917,8.008c-1.166,0.903-2.272,1.871-3.42,2.794c-2.361,1.896-4.734,3.779-7.022,5.753
				c-1.408,1.215-2.747,2.501-4.127,3.744c-1.951,1.759-3.927,3.495-5.821,5.311c-1.444,1.385-2.815,2.838-4.225,4.255
				c-1.747,1.756-3.519,3.488-5.213,5.292c-1.412,1.505-2.752,3.073-4.126,4.61c-1.603,1.793-3.23,3.564-4.781,5.401
				C117.306,69.423,116.027,71.081,114.716,72.714z"/>
			<path d="M507.709,210.355c-5.948-28.426-15.634-55.939-28.808-81.822c-2.522-4.424-5.259-8.893-8.156-13.268h-0.621
				c-2.55,0-5.036,0.113-7.54,0.193c-1.786,0.06-3.581,0.076-5.355,0.179c-2.038,0.113-4.06,0.311-6.087,0.479
				c-1.651,0.142-3.283,0.323-4.917,0.502c0.919,0.937,1.771,1.935,2.675,2.886c1.752,1.842,3.485,3.697,5.177,5.586
				c1.226,1.373,2.429,2.763,3.625,4.163c2.102,2.448,4.155,4.933,6.158,7.455c0.614,0.775,1.223,1.555,1.828,2.339
				c8.998,11.584,16.984,23.919,23.871,36.869l0.153,0.277c2.531,4.781,4.945,9.62,7.169,14.551
				c0.605,1.334,1.123,2.702,1.704,4.046c1.469,3.412,2.891,6.842,4.21,10.316c0.621,1.645,1.201,3.3,1.786,4.958
				c1.47,4.126,2.836,8.291,4.097,12.494c0.068,0.235,0.16,0.463,0.229,0.698c0.15,0.478,0.285,1.005,0.432,1.492
				c0.478,1.648,0.986,3.286,1.431,4.945l0.083,0.287C509.964,223.502,508.861,216.962,507.709,210.355z"/>
			<path d="M293.763,388.546c0-2.115-0.071-4.079-0.129-6.07c-1.679,0.456-3.394,0.776-5.082,1.199
				c-2.491,0.627-4.994,1.218-7.507,1.771c-3.988,0.878-8.001,1.642-12.034,2.339c-2.461,0.426-4.916,0.871-7.392,1.229
				c-4.386,0.634-8.802,1.102-13.23,1.523c-2.132,0.203-4.248,0.478-6.388,0.631c-6.568,0.469-13.167,0.752-19.805,0.752
				c-5.832,0-11.632-0.217-17.405-0.585c-1.896-0.121-3.771-0.346-5.659-0.506c-3.873-0.328-7.74-0.679-11.58-1.17
				c-2.209-0.282-4.397-0.65-6.594-0.985c-3.489-0.533-6.969-1.094-10.425-1.759c-2.294-0.441-4.568-0.938-6.845-1.438
				c-3.339-0.731-6.66-1.514-9.961-2.368c-2.267-0.584-4.526-1.198-6.775-1.842c-3.294-0.943-6.559-1.961-9.809-3.025
				c-2.167-0.709-4.334-1.411-6.48-2.173c-3.36-1.193-6.675-2.487-9.981-3.808c-1.963-0.784-3.94-1.531-5.883-2.359
				c-3.7-1.578-7.338-3.286-10.962-5.023c-1.474-0.706-2.975-1.351-4.436-2.083c-5.07-2.53-10.051-5.218-14.945-8.062
				c-0.645-0.375-1.261-0.798-1.903-1.178c-4.215-2.496-8.375-5.081-12.452-7.8c-1.594-1.063-3.133-2.206-4.705-3.302
				c-3.069-2.14-6.122-4.299-9.104-6.564c-1.747-1.328-3.446-2.716-5.162-4.087c-2.723-2.174-5.422-4.374-8.064-6.654
				c-1.738-1.499-3.442-3.036-5.144-4.581c-2.529-2.293-5.016-4.635-7.462-7.027c-1.658-1.622-3.301-3.256-4.92-4.922
				c-2.405-2.476-4.746-5.014-7.061-7.585c-1.522-1.691-3.052-3.37-4.534-5.101c-2.358-2.756-4.627-5.594-6.881-8.451
				c-1.306-1.655-2.646-3.276-3.915-4.965c-0.35-0.465-0.731-0.901-1.079-1.369c4.568,47.063,22.185,91.916,50.867,129.508
				c0.261,0.342,0.498,0.701,0.71,1.076c1.728,2.327,3.547,4.584,5.505,6.837c3.323,2.762,6.831,5.254,10.28,7.835
				c2.426,1.815,4.756,3.771,7.24,5.494c3.488,2.419,7.146,4.553,10.744,6.79c2.665,1.657,5.247,3.46,7.968,5.016
				c3.551,2.03,7.248,3.769,10.889,5.623c2.915,1.484,5.756,3.117,8.723,4.488c3.655,1.688,7.434,3.079,11.163,4.592
				c3.079,1.249,6.096,2.651,9.222,3.78c3.765,1.359,7.634,2.413,11.46,3.595c3.198,0.988,6.344,2.132,9.581,2.995
				c4.113,1.096,8.31,1.869,12.478,2.759c3.031,0.648,6.021,1.463,9.078,2.001c4.844,0.852,9.755,1.358,14.652,1.931
				c2.446,0.286,4.86,0.746,7.316,0.961c7.384,0.65,14.8,0.975,22.248,0.975c4.865,0,9.717-0.154,14.551-0.431
				c1.622-0.093,3.23-0.278,4.848-0.402c3.206-0.246,6.412-0.491,9.595-0.858c1.917-0.221,3.814-0.531,5.722-0.796
				c2.854-0.397,5.709-0.789,8.54-1.284c2.028-0.355,4.035-0.786,6.049-1.19c1.926-0.385,3.845-0.794,5.757-1.227
				c1.27-3.066,2.529-6.134,3.665-9.306C289.444,438.388,293.79,413.561,293.763,388.546z"/>
			<path d="M500.982,284.401c-0.081-1.71-0.249-3.374-0.366-5.064c-0.174-2.443-0.329-4.89-0.578-7.32
				c-0.163-1.599-0.392-3.172-0.589-4.757c-0.265-2.161-0.528-4.324-0.852-6.472c-0.526-3.391-1.109-6.765-1.795-10.122
				c-0.67-3.497-1.386-6.678-2.117-9.798c-0.258-1.081-0.503-2.165-0.776-3.242c-0.73-2.902-1.489-5.684-2.296-8.326
				c-0.12-0.412-0.242-0.823-0.364-1.234c-1.195-4.099-2.561-8.137-3.984-12.151c-0.413-1.153-0.789-2.319-1.219-3.465
				c-1.619-4.361-3.375-8.664-5.267-12.91c-0.422-0.952-0.9-1.879-1.335-2.826c-1.776-3.838-3.617-7.646-5.609-11.384
				c-0.221-0.42-0.45-0.836-0.674-1.255c-2.397-4.429-4.924-8.795-7.621-13.074c-5.913-9.647-12.519-18.852-19.764-27.543
				c-0.648-0.775-1.295-1.55-1.953-2.316c-3.207-3.766-6.532-7.42-9.974-10.964c-0.363-0.373-0.7-0.766-1.065-1.137
				c-2.974-3.02-6.114-5.874-9.253-8.729c-0.596,0.131-1.191,0.267-1.786,0.403c-5.671,1.296-11.291,2.744-16.802,4.482
				c-0.192,0.061-0.379,0.136-0.57,0.196c-5.405,1.721-10.708,3.709-15.949,5.852c-0.952,0.39-1.912,0.76-2.859,1.164
				c-5.15,2.2-10.214,4.602-15.193,7.205c-0.998,0.522-1.983,1.071-2.973,1.609c-5.095,2.766-10.127,5.677-15.026,8.872
				l-0.065,0.045c0.329,0.291,0.633,0.602,0.96,0.895c1.445,1.29,2.826,2.632,4.238,3.949c2.03,1.895,4.064,3.783,6.024,5.735
				c1.452,1.445,2.843,2.936,4.257,4.411c1.821,1.902,3.643,3.8,5.401,5.751c1.412,1.568,2.77,3.174,4.141,4.773
				c1.662,1.94,3.32,3.88,4.92,5.864c1.344,1.666,2.64,3.362,3.939,5.059c1.521,1.986,3.031,3.977,4.491,6.003
				c1.264,1.754,2.487,3.532,3.704,5.315c1.393,2.041,2.767,4.091,4.099,6.17c1.17,1.824,2.306,3.666,3.427,5.518
				c1.273,2.098,2.515,4.215,3.725,6.35c1.072,1.89,2.12,3.794,3.142,5.711c1.145,2.157,2.262,4.33,3.349,6.517
				c0.968,1.948,1.92,3.901,2.837,5.873c1.034,2.222,2.021,4.463,2.99,6.715c0.855,1.985,1.703,3.971,2.508,5.979
				c0.919,2.295,1.781,4.611,2.634,6.934c0.74,2.015,1.483,4.027,2.172,6.062c0.803,2.37,1.538,4.764,2.272,7.16
				c0.622,2.03,1.257,4.052,1.829,6.099c0.687,2.46,1.294,4.943,1.907,7.427c0.499,2.022,1.025,4.035,1.475,6.071
				c0.571,2.581,1.05,5.187,1.543,7.791c0.373,1.975,0.783,3.938,1.111,5.925c0.455,2.758,0.805,5.542,1.17,8.321
				c0.245,1.866,0.54,3.72,0.745,5.595c0.34,3.112,0.559,6.248,0.788,9.384c0.114,1.568,0.288,3.125,0.374,4.699
				c0.265,4.722,0.397,9.466,0.397,14.232c0,6.294-0.296,12.537-0.74,18.751c-0.132,1.843-0.322,3.671-0.493,5.506
				c-0.425,4.58-0.97,9.133-1.634,13.66c-0.266,1.81-0.512,3.622-0.815,5.422c-1.021,6.052-2.188,12.068-3.636,18.004l-0.016,0.077
				c-1.459,5.972-3.201,11.857-5.087,17.693c-0.551,1.706-1.158,3.389-1.745,5.083c-1.493,4.305-3.101,8.567-4.826,12.787
				c-0.682,1.669-1.344,3.342-2.063,4.997c-2.415,5.565-4.97,11.075-7.79,16.472l-0.091,0.187l-0.032,0.066
				c9.86-7.382,19.18-15.459,27.888-24.17h0c25.042-24.908,44.61-54.768,57.453-87.671c4.014-17.397,6.031-35.195,6.011-53.049
				c0-3.805-0.095-7.542-0.261-11.236C500.988,284.805,500.992,284.602,500.982,284.401z"/>
			<path d="M413.855,399.097c0.888-3.663,1.529-7.396,2.243-11.108c0.478-2.484,1.082-4.934,1.481-7.439
				c0.651-4.083,1.038-8.23,1.478-12.362c0.233-2.19,0.599-4.349,0.772-6.552c0.505-6.359,0.758-12.762,0.758-19.209
				c-0.004-4.47-0.128-8.919-0.372-13.347c-0.08-1.454-0.247-2.891-0.353-4.34c-0.216-2.961-0.42-5.925-0.744-8.863
				c-0.191-1.733-0.475-3.445-0.703-5.17c-0.349-2.634-0.674-5.276-1.109-7.888c-0.303-1.819-0.694-3.614-1.038-5.422
				c-0.473-2.484-0.922-4.974-1.473-7.436c-0.419-1.874-0.922-3.723-1.386-5.584c-0.589-2.362-1.156-4.73-1.815-7.069
				c-0.531-1.883-1.141-3.739-1.717-5.606c-0.704-2.28-1.392-4.565-2.164-6.82c-0.64-1.869-1.351-3.71-2.037-5.561
				c-0.819-2.21-1.626-4.424-2.51-6.607c-0.747-1.846-1.561-3.663-2.354-5.489c-0.93-2.14-1.854-4.282-2.847-6.393
				c-0.856-1.819-1.77-3.609-2.672-5.405c-1.038-2.068-2.074-4.137-3.173-6.174c-0.961-1.783-1.977-3.537-2.984-5.295
				c-1.142-1.993-2.286-3.984-3.487-5.944c-1.07-1.747-2.188-3.466-3.304-5.186c-1.242-1.915-2.491-3.825-3.79-5.705
				c-1.173-1.698-2.388-3.37-3.607-5.04c-1.342-1.839-2.696-3.671-4.094-5.474c-1.276-1.647-2.591-3.271-3.913-4.887
				c-1.436-1.756-2.887-3.499-4.377-5.217c-1.382-1.594-2.797-3.166-4.224-4.726c-1.521-1.67-3.069-3.319-4.646-4.947
				c-1.493-1.538-3.008-3.059-4.545-4.563c-1.606-1.573-3.237-3.126-4.892-4.658c-1.595-1.477-3.213-2.934-4.854-4.372
				c-0.773-0.678-1.571-1.334-2.355-2.003c-1.285,1.009-2.58,2.003-3.839,3.039c-1.695,1.393-3.387,2.788-5.035,4.228
				c-2.236,1.954-4.401,3.975-6.549,6.013c-1.542,1.463-3.099,2.91-4.595,4.414c-2.174,2.188-4.254,4.456-6.329,6.73
				c-1.337,1.466-2.711,2.9-4.007,4.401c-2.229,2.584-4.341,5.262-6.444,7.947c-1.012,1.293-2.081,2.54-3.064,3.855
				c-3.024,4.049-5.924,8.191-8.658,12.446l-0.152,0.254c-2.665,4.177-5.19,8.444-7.575,12.8c-0.817,1.493-1.537,3.044-2.32,4.559
				c-1.546,2.991-3.088,5.987-4.498,9.056c-0.852,1.855-1.61,3.76-2.412,5.642c-0.916,2.14-1.797,4.298-2.643,6.475
				c1.183,1.671,2.236,3.414,3.374,5.111c1.362,2.032,2.744,4.05,4.04,6.119c1.565,2.501,3.022,5.054,4.488,7.605
				c1.204,2.095,2.438,4.171,3.575,6.297c1.397,2.614,2.674,5.28,3.968,7.94c1.042,2.142,2.125,4.263,3.1,6.433
				c1.229,2.735,2.324,5.521,3.445,8.299c0.873,2.163,1.798,4.303,2.606,6.49c1.061,2.875,1.975,5.799,2.922,8.713
				c0.698,2.15,1.461,4.277,2.097,6.448c0.902,3.084,1.643,6.213,2.417,9.334c0.508,2.049,1.095,4.075,1.547,6.138
				c0.764,3.484,1.347,7.01,1.951,10.533c0.299,1.743,0.687,3.466,0.945,5.218c0.775,5.226,1.37,10.483,1.785,15.771l0.008,0.026
				l0.009,0.132l0.004,0.037c0.558,5.786,0.835,11.991,0.835,18.808c-0.001,6.828-0.293,13.614-0.876,20.361
				c-1.743,20.218-6.128,40.12-13.044,59.198c-1.969,5.5-3.906,10.357-5.911,14.817c-0.179,0.397-0.387,0.78-0.621,1.147
				c-0.35,0.795-0.769,1.55-1.128,2.339c-1.526,3.354-3.109,6.672-4.791,9.934c-0.748,1.45-1.538,2.868-2.316,4.299
				c-1.497,2.769-3.052,5.499-4.666,8.189c-0.448,0.747-0.839,1.534-1.296,2.275c33.856-2.647,66.836-12.065,96.984-27.696
				c1.767-2.401,3.378-4.883,5.047-7.336c1.753-2.576,3.591-5.108,5.235-7.738c1.759-2.814,3.315-5.721,4.949-8.595
				c1.487-2.615,3.066-5.188,4.448-7.85c1.557-3,2.902-6.09,4.325-9.147c1.229-2.64,2.559-5.239,3.688-7.92
				c1.338-3.177,2.452-6.436,3.647-9.667c0.982-2.653,2.072-5.266,2.957-7.954c1.118-3.395,2.001-6.866,2.964-10.312
				C412.373,404.289,413.218,401.726,413.855,399.097z"/>
		</g>
	</g>
</g>
<g>
</g>
<g>
</g>
<g>
</g>
<g>
</g>
<g>
</g>
<g>
</g>
<g>
</g>
<g>
</g>
<g>
</g>
<g>
</g>
<g>
</g>
<g>
</g>
<g>
</g>
<g>
</g>
<g>
</g>
</svg>
