<svg height="512pt" viewBox="0 0 512 512.0025" width="512pt" xmlns="http://www.w3.org/2000/svg"><path d="m130.667969 300.160156v-138.523437c0-29.96875 26.933593-51.039063 54.210937-46.4375l50.980469-50.980469c8.589844-8.582031 18.320313-16.28125 28.761719-22.890625l-6.269532-2.859375c-27.019531-12.28125-60.28125-5.851562-78.601562-.5625-8.789062 2.542969-18.261719.121094-24.730469-6.347656l-27.171875-27.171875c-5.847656-5.847657-15.347656-5.847657-21.207031 0l-102.25 102.253906c-5.851563 5.859375-5.851563 15.359375 0 21.207031l41.207031 41.210938c1.550782 30.921875 17.792969 63.820312 39.839844 85.871094 0 0 22.28125 22.289062 45.230469 45.230468zm0 0"/><path d="m507.613281 127.847656c5.847657-5.847656 5.847657-15.347656 0-21.210937l-102.253906-102.25c-5.859375-5.847657-15.359375-5.847657-21.207031 0l-41.210938 41.210937c-30.921875 1.550782-63.820312 17.792969-85.871094 39.839844 9.03125 3.390625 17.25 9.792969 23.179688 19.480469 31.390625-18.5 70.019531 5.089843 70.019531 40.210937v4.691406c30.410157-11.75 63.203125 11.078126 63.203125 43.949219v81.910157c.296875 17.851562 2.128906 37.089843 11.078125 46.039062 8.652344 8.652344 20.109375.113281 23.261719-6.796875l25.71875-56.570313c12.28125-27.023437 5.851562-60.28125.558594-78.601562-2.539063-8.789062-.117188-18.261719 6.351562-24.730469zm0 0"/><path d="m366.546875 176.734375c-9.019531.171875-16.277344 7.542969-16.277344 16.59375v78.320313c0 8.082031-6.214843 15.035156-14.289062 15.40625-8.613281.398437-15.710938-6.46875-15.710938-14.984376v-126.941406c0-9.058594-7.277343-16.4375-16.300781-16.597656-9.292969-.164062-16.898438 7.742188-16.898438 17.035156v126.082032c0 8.082031-6.214843 15.035156-14.289062 15.40625-8.613281.398437-15.710938-6.46875-15.710938-14.984376v-143c0-9.070312-7.28125-16.441406-16.304687-16.597656-9.289063-.164062-16.894531 7.738282-16.894531 17.03125v142.566406c0 8.523438-7.121094 15.394532-15.734375 14.980469-8.066407-.382812-14.265625-7.335937-14.265625-15.410156v-110.441406c0-9.070313-7.28125-16.4375-16.304688-16.597657-9.292968-.164062-16.898437 7.742188-16.898437 17.035157v172.113281c0 5.328125-6.484375 7.625-10.226563 3.832031-14.640625-14.832031-35.300781-36.390625-52.066406-36.390625-12.226562 0-14.296875 14.140625-11.636719 21.25l21.820313 58.191406c10.421875 27.789063 38.484375 46.757813 55.175781 55.972657 8.011719 4.417969 12.996094 12.828125 12.996094 21.976562v38.421875c0 8.28125 6.714843 15 15 15h144.601562c8.289063 0 15-6.722656 15-15v-58.28125c20.769531-22.949218 32.140625-52.390625 32.140625-83.5625v-161.394531c0-9.308594-7.617187-17.210937-16.925781-17.03125zm0 0"/></svg>