<?xml version="1.0" encoding="iso-8859-1"?>
<!-- Generator: Adobe Illustrator 17.1.0, SVG Export Plug-In . SVG Version: 6.00 Build 0)  -->
<!DOCTYPE svg PUBLIC "-//W3C//DTD SVG 1.1//EN" "http://www.w3.org/Graphics/SVG/1.1/DTD/svg11.dtd">
<svg version="1.1" id="Capa_1" xmlns="http://www.w3.org/2000/svg" xmlns:xlink="http://www.w3.org/1999/xlink" x="0px" y="0px"
	 viewBox="0 0 464.871 464.871" style="enable-background:new 0 0 464.871 464.871;" xml:space="preserve">
<g>
	<path d="M220.095,139.318c-3.671-8.496-12.026-13.986-21.285-13.986c-0.436,0-83.395,0-83.616,0
		c-10.732,0-17.614,5.49-21.286,13.985L49.233,242.628c-2.458,5.683-2.557,11.982-0.276,17.738
		c2.28,5.756,6.665,10.279,12.349,12.737c2.934,1.266,6.026,1.908,9.19,1.908c9.255,0,17.608-5.489,21.281-13.983l8.134-18.81
		v197.128c0,14.074,11.45,25.524,25.524,25.524c14.075,0,25.526-11.45,25.526-25.524V308.108h10.826v131.239
		c0,14.074,11.45,25.524,25.524,25.524c14.075,0,25.526-11.45,25.526-25.524V239.317l9.388,21.711
		c3.674,8.494,12.027,13.983,21.282,13.983c3.167,0,6.259-0.643,9.19-1.909c11.729-5.072,17.147-18.742,12.074-30.475
		L220.095,139.318z"/>
	<path d="M154.095,116.838c32.204,0,58.404-26.207,58.404-58.419S186.299,0,154.095,0c-32.212,0-58.418,26.207-58.418,58.419
		S121.883,116.838,154.095,116.838z"/>
	<path d="M343.883,69.669c4.971,0,9-4.029,9-9s-4.029-9-9-9h-55.738c-7.168,0-13,5.832-13,13v350.514c0,7.168,5.832,13,13,13h55.738
		c4.971,0,9-4.029,9-9s-4.029-9-9-9h-50.738V248.927h50.738c4.971,0,9-4.029,9-9s-4.029-9-9-9h-50.738V69.669H343.883z"/>
	<path d="M390.556,85.419c14.888,0,27-12.112,27-27s-12.112-27-27-27c-14.888,0-27,12.112-27,27S375.668,85.419,390.556,85.419z
		 M390.556,49.419c4.963,0,9,4.037,9,9s-4.037,9-9,9c-4.963,0-9-4.037-9-9S385.593,49.419,390.556,49.419z"/>
	<path d="M390.556,212.925c-14.888,0-27,12.112-27,27c0,14.888,12.112,27,27,27c14.888,0,27-12.112,27-27
		C417.556,225.037,405.444,212.925,390.556,212.925z M390.556,248.925c-4.963,0-9-4.037-9-9c0-4.963,4.037-9,9-9
		c4.963,0,9,4.037,9,9C399.556,244.888,395.519,248.925,390.556,248.925z"/>
	<path d="M390.556,392.183c-14.888,0-27,12.112-27,27s12.112,27,27,27c14.888,0,27-12.112,27-27S405.444,392.183,390.556,392.183z
		 M390.556,428.183c-4.963,0-9-4.037-9-9c0-4.963,4.037-9,9-9c4.963,0,9,4.037,9,9C399.556,424.146,395.519,428.183,390.556,428.183
		z"/>
</g>
<g>
</g>
<g>
</g>
<g>
</g>
<g>
</g>
<g>
</g>
<g>
</g>
<g>
</g>
<g>
</g>
<g>
</g>
<g>
</g>
<g>
</g>
<g>
</g>
<g>
</g>
<g>
</g>
<g>
</g>
</svg>
