<svg id="Layer_3" enable-background="new 0 0 64 64" height="512" viewBox="0 0 64 64" width="512" xmlns="http://www.w3.org/2000/svg"><g><path d="m24 26h-2.465l-3.535 5.303v12.697h3v-13c0-.552.447-1 1-1h6.899c-.465-2.279-2.485-4-4.899-4z"/><path d="m23 44h20v-12h-20zm10-9c1.654 0 3 1.346 3 3s-1.346 3-3 3-3-1.346-3-3 1.346-3 3-3z"/><path d="m18.561 26.855c-.508.09-1.028.145-1.561.145s-1.053-.055-1.561-.145l1.561 2.342z"/><circle cx="33" cy="38" r="1"/><path d="m51 39h6v5h-6z"/><path d="m24 18v-3h-2c-1.658 0-3.082-1.014-3.688-2.454-1.285 1.499-3.188 2.454-5.312 2.454h-3v3c0 3.86 3.141 7 7 7s7-3.14 7-7z"/><path d="m5 52h54v10h-54z"/><path d="m8 19h.059c-.037-.329-.059-.662-.059-1v-3c-1.103 0-2 .897-2 2s.897 2 2 2z"/><path d="m9 37h2v7h5v-12.697l-3.535-5.303h-2.465c-2.757 0-5 2.243-5 5v13h4z"/><path d="m26 18c0 .338-.022.671-.059 1h.059c1.103 0 2-.897 2-2s-.897-2-2-2z"/><path d="m3 46h58v4h-58z"/><path d="m13 13c2.757 0 5-2.243 5-5v-1h2v1 3c0 1.103.897 2 2 2h3 1v-4c0-3.309-2.691-6-6-6h-6c-3.309 0-6 2.691-6 6v4h1z"/><path d="m45.069 12c.453 3.612 3.319 6.477 6.931 6.931v-1.931h2v1.931c3.612-.453 6.477-3.319 6.931-6.931h-1.931v-2h1.931c-.454-3.612-3.319-6.477-6.931-6.931v1.931h-2v-1.931c-3.612.454-6.477 3.319-6.931 6.931h1.931v2zm6.931-1.414v-3.586h2v4c0 .265-.105.52-.293.707l-3 3-1.414-1.414z"/><path d="m34 15h7v2h-7z"/><path d="m32 19h9v2h-9z"/></g></svg>