<svg id="Layer_3" enable-background="new 0 0 64 64" height="512" viewBox="0 0 64 64" width="512" xmlns="http://www.w3.org/2000/svg"><g><path d="m28 15v2c0 2.206 1.794 4 4 4s4-1.794 4-4v-2c0-2.206-1.794-4-4-4s-4 1.794-4 4z"/><path d="m32 23c-.461 0-.908-.057-1.34-.156-.304.483-.686.895-1.128 1.228 1.393 1.167 3.544 1.167 4.936 0-.442-.333-.825-.745-1.128-1.228-.432.099-.879.156-1.34.156z"/><path d="m38 33v2h16v-4.382c0-1.443-1.174-2.618-2.618-2.618h-.146c-.257 0-.508-.027-.755-.067l-.36.36c-1.1 1.101-2.564 1.707-4.121 1.707-1.502 0-2.914-.569-4-1.597v3.597c0 .553-.448 1-1 1z"/><path d="m46 26c-.461 0-.908-.057-1.34-.156-.304.483-.686.895-1.128 1.228 1.393 1.167 3.544 1.167 4.936 0-.442-.333-.825-.745-1.128-1.228-.432.099-.879.156-1.34.156z"/><path d="m24 27.618v3.382h16v-3.382c0-1.443-1.174-2.618-2.618-2.618h-.146c-.257 0-.508-.027-.755-.067l-.36.36c-1.1 1.101-2.564 1.707-4.121 1.707s-3.021-.606-4.121-1.707l-.36-.36c-.247.04-.498.067-.755.067h-.146c-1.444 0-2.618 1.175-2.618 2.618z"/><path d="m14 20c0 2.206 1.794 4 4 4s4-1.794 4-4v-2c0-2.206-1.794-4-4-4s-4 1.794-4 4z"/><path d="m26 33h-3c-.552 0-1-.447-1-1v-3.597c-1.086 1.028-2.498 1.597-4 1.597-1.557 0-3.021-.606-4.121-1.707l-.36-.36c-.247.04-.498.067-.755.067h-.146c-1.444 0-2.618 1.175-2.618 2.618v4.382h16z"/><path d="m18 26c-.461 0-.908-.057-1.34-.156-.304.483-.686.895-1.128 1.228 1.393 1.167 3.544 1.167 4.936 0-.442-.333-.825-.745-1.128-1.228-.432.099-.879.156-1.34.156z"/><path d="m46 24c2.206 0 4-1.794 4-4v-2c0-2.206-1.794-4-4-4s-4 1.794-4 4v2c0 2.206 1.794 4 4 4z"/><path d="m11 41h4v18h-4z"/><path d="m57.22 45.249-20.411 5.567c.05 1.041-.309 2.098-1.102 2.891-.746.746-1.727 1.119-2.707 1.119s-1.961-.373-2.707-1.119l-5-5 1.414-1.414 5 5c.713.713 1.873.713 2.586 0s.713-1.873 0-2.586l-6.707-6.707h-10.586v14h7c.107 0 .214.018.316.052l5.679 1.893 31.005-10.659v-.286c0-.571-.161-1.128-.467-1.608-.653-1.028-2.015-1.498-3.313-1.143z"/><path d="m3 61h6v-1-19h-6z"/><path d="m37.193 1.433c-.659-.111-1.339-.203-2.023-.273l-.203 1.99c.637.064 1.268.149 1.892.256z"/><path d="m62.994 31.395-2 .039c.004.189.006.378.006.566 0 .45-.01.899-.031 1.344l1.998.092c.022-.476.033-.955.033-1.436 0-.202-.002-.404-.006-.605z"/><path d="m60.546 37.139 1.969.354c.119-.665.218-1.345.293-2.021l-1.988-.222c-.07.636-.162 1.266-.274 1.889z"/><path d="m44.979 3.839c-.62-.286-1.254-.553-1.884-.794l-.715 1.867c.597.229 1.184.477 1.761.743z"/><path d="m41.162 2.376c-.648-.199-1.304-.379-1.969-.537l-.464 1.945c.623.148 1.237.316 1.843.504z"/><path d="m48.566 5.793c-.57-.361-1.163-.71-1.762-1.036l-.955 1.758c.56.305 1.109.627 1.646.968z"/><path d="m59.627 40.845 1.905.609c.208-.65.395-1.312.557-1.966l-1.941-.48c-.154.621-.328 1.233-.521 1.837z"/><path d="m55.74 15.342 1.636-1.15c-.391-.557-.801-1.101-1.227-1.63l-1.559 1.254c.4.496.784 1.004 1.15 1.526z"/><path d="m59.262 22.087 1.88-.684c-.233-.64-.489-1.276-.76-1.892l-1.83.807c.255.58.492 1.17.71 1.769z"/><path d="m7.333 16.744-1.699-1.055c-.357.576-.7 1.172-1.019 1.771l1.765.94c.3-.563.617-1.115.953-1.656z"/><path d="m57.724 18.6 1.773-.926c-.313-.599-.65-1.196-1.003-1.775l-1.708 1.039c.331.542.644 1.097.938 1.662z"/><path d="m54.817 11.015c-.455-.495-.937-.985-1.431-1.456l-1.38 1.447c.46.439.907.893 1.338 1.362z"/><path d="m60.326 25.752 1.953-.43c-.146-.664-.315-1.329-.503-1.978l-1.921.557c.176.61.333 1.227.471 1.851z"/><path d="m51.864 8.199c-.522-.435-1.064-.859-1.609-1.257l-1.179 1.615c.515.376 1.017.769 1.505 1.177z"/><path d="m60.896 29.526 1.993-.17c-.058-.682-.138-1.357-.239-2.026l-1.978.299c.096.626.17 1.259.224 1.897z"/><path d="m18.349 6.407-.942-1.764c-.6.32-1.194.663-1.767 1.021l1.059 1.697c.537-.336 1.088-.654 1.65-.954z"/><path d="m15.111 8.421-1.168-1.623c-.552.397-1.092.812-1.617 1.243l1.271 1.545c.491-.404.997-.793 1.514-1.165z"/><path d="m21.822 4.837-.702-1.873c-.637.239-1.271.501-1.884.778l.824 1.822c.578-.261 1.166-.503 1.762-.727z"/><path d="m6.766 13.99 1.626 1.164c.372-.519.759-1.025 1.163-1.519l-1.549-1.265c-.43.526-.844 1.067-1.24 1.62z"/><path d="m12.161 10.85-1.366-1.461c-.489.457-.974.943-1.443 1.445l1.462 1.365c.437-.47.891-.924 1.347-1.349z"/><path d="m5.538 20.118-1.823-.82c-.277.614-.538 1.251-.776 1.891l1.874.697c.222-.599.464-1.189.725-1.768z"/><path d="m4.206 23.695-1.917-.572c-.194.653-.369 1.317-.518 1.976l1.95.443c.142-.624.304-1.239.485-1.847z"/><path d="m25.475 3.736-.446-1.949c-.66.151-1.325.327-1.975.523l.578 1.914c.606-.182 1.226-.346 1.843-.488z"/><path d="m29.243 3.13-.186-1.992c-.67.062-1.352.149-2.026.259l.319 1.975c.625-.101 1.256-.184 1.893-.242z"/><path d="m3 32c0-.262.003-.521.01-.78l-1.999-.055c-.008.276-.011.556-.011.836 0 .403.008.805.023 1.205l1.999-.076c-.015-.375-.022-.753-.022-1.13z"/><path d="m3.36 27.417-1.976-.312c-.106.67-.191 1.351-.253 2.024l1.991.184c.059-.639.139-1.271.238-1.896z"/><path d="m31.914 3c.38-.002.768.006 1.149.019l.069-1.998c-.375-.014-.753-.021-1.129-.021-.306-.001-.609.003-.912.012l.061 2c.252-.008.505-.012.762-.012z"/><path d="m3.157 35.036-1.989.207c.071.682.164 1.355.278 2.022l1.972-.338c-.108-.623-.195-1.254-.261-1.891z"/></g></svg>