<svg height="512pt" viewBox="-16 0 512 512" width="512pt" xmlns="http://www.w3.org/2000/svg"><g fill-rule="evenodd"><path d="m175.667969 321.332031c0-35.433593-28.828125-64.265625-64.265625-64.265625s-64.269532 28.832032-64.269532 64.265625c0 35.4375 28.832032 64.269531 64.269532 64.269531s64.265625-28.832031 64.265625-64.269531zm0 0"/><path d="m111.398438 385.601562c-61.523438 0-111.398438 49.875-111.398438 111.398438 0 8.285156 6.714844 15 15 15h192.800781c8.285157 0 15-6.714844 15-15 0-61.523438-49.875-111.398438-111.402343-111.398438zm0 0"/><path d="m368.46875 257.066406c-35.4375 0-64.269531 28.832032-64.269531 64.265625 0 35.4375 28.832031 64.269531 64.269531 64.269531s64.265625-28.832031 64.265625-64.269531c0-35.433593-28.828125-64.265625-64.265625-64.265625zm0 0"/><path d="m368.46875 385.601562c-61.523438 0-111.402344 49.875-111.402344 111.398438 0 8.285156 6.71875 15 15 15h192.800782c8.285156 0 15-6.714844 15-15 0-61.523438-49.875-111.398438-111.398438-111.398438zm0 0"/><path d="m368.46875 222.800781c25.988281 0 47.132812-21.144531 47.132812-47.132812v-128.535157c0-26.261718-21.308593-47.132812-47.132812-47.132812h-257.066406c-26.28125 0-47.136719 21.324219-47.136719 47.132812v128.535157c0 25.988281 21.144531 47.132812 47.136719 47.132812h75.222656l39.894531 79.785157c2.539063 5.082031 7.734375 8.292968 13.414063 8.292968 5.683594 0 10.875-3.210937 13.417968-8.292968l39.890626-79.785157zm-96.402344-158.535156c8.28125 0 15 6.722656 15 15 0 8.28125-6.71875 15-15 15-8.277344 0-15-6.71875-15-15 0-8.277344 6.722656-15 15-15zm-64.265625 0c8.28125 0 15 6.722656 15 15 0 8.28125-6.71875 15-15 15s-15-6.71875-15-15c0-8.277344 6.71875-15 15-15zm32.132813 102.300781c-23.566406 0-46.074219-11.253906-60.203125-30.101562-4.96875-6.628906-3.621094-16.03125 3.007812-21 6.628907-4.96875 16.03125-3.625 20.996094 3.003906 8.496094 11.332031 22.027344 18.097656 36.199219 18.097656s27.703125-6.765625 36.199218-18.097656c4.96875-6.628906 14.371094-7.976562 21-3.003906 6.628907 4.96875 7.972657 14.371094 3.003907 21-14.128907 18.847656-36.636719 30.101562-60.203125 30.101562zm0 0"/></g></svg>