<svg height="464pt" viewBox="0 -40 464 464" width="464pt" xmlns="http://www.w3.org/2000/svg"><path d="m136 304c29.398438 0 57.59375-12.640625 77.367188-34.679688 17.167968-19.167968 26.632812-43.785156 26.632812-69.320312 0-8.015625-1.039062-16.34375-3.105469-24.761719-11.398437-46.644531-52.894531-79.238281-100.894531-79.238281-57.34375 0-104 46.65625-104 104s46.65625 104 104 104zm-48-136c0-26.472656 21.527344-48 48-48s48 21.527344 48 48v48c0 14.425781-6.425781 27.34375-16.527344 36.152344 3.351563 5.144531 7.6875 9.671875 12.960938 13.191406l-8.875 13.3125c-7.230469-4.816406-13.152344-11.054688-17.695313-18.136719-5.527343 2.222657-11.550781 3.480469-17.863281 3.480469-26.472656 0-48-21.527344-48-48zm0 0"/><path d="m0 384h464v-320h-464zm136-304c50.800781 0 95.199219 31.664062 112.382812 78.433594 21.882813-19.457032 50.210938-30.433594 79.617188-30.433594 66.167969 0 120 53.832031 120 120s-53.832031 120-120 120c-50.800781 0-95.199219-31.664062-112.382812-78.433594-21.882813 19.457032-50.210938 30.433594-79.617188 30.433594-66.167969 0-120-53.832031-120-120s53.832031-120 120-120zm0 0"/><path d="m330.121094 192h-4.242188l-22.503906 72h49.25zm0 0"/><path d="m328 352c57.34375 0 104-46.65625 104-104s-46.65625-104-104-104c-28.046875 0-55.007812 11.503906-74.59375 31.703125 1.730469 8.21875 2.59375 16.367187 2.59375 24.296875 0 28.03125-9.855469 55.097656-27.855469 76.6875 12.71875 44.550781 53.214844 75.3125 99.855469 75.3125zm-56-88h14.625l27.496094-88h27.765625l27.496093 88h14.617188v16h-9.625l9.257812 29.617188-15.265624 4.765624-10.742188-34.382812h-59.242188l-10.742187 34.382812-15.265625-4.765624 9.257812-29.617188h-9.632812zm0 0"/><path d="m136 248c3.886719 0 7.566406-.800781 11.023438-2.070312-1.910157-6-3.023438-12.289063-3.023438-18.769532v-3.160156h16v3.160156c0 2.953125.367188 5.847656.910156 8.679688 4.371094-5.472656 7.089844-12.304688 7.089844-19.839844v-48c0-17.648438-14.351562-32-32-32s-32 14.351562-32 32v48c0 17.648438 14.351562 32 32 32zm0 0"/><path d="m0 0v48h464v-48zm32 32h-16v-16h16zm32 0h-16v-16h16zm32 0h-16v-16h16zm0 0"/></svg>